<?xml version="1.0" standalone="no"?>
<!DOCTYPE svg PUBLIC "-//W3C//DTD SVG 20010904//EN"
 "http://www.w3.org/TR/2001/REC-SVG-20010904/DTD/svg10.dtd">
<svg version="1.0" xmlns="http://www.w3.org/2000/svg"
 width="640.000000pt" height="640.000000pt" viewBox="0 0 640.000000 640.000000"
 preserveAspectRatio="xMidYMid meet">
<metadata>
Created by potrace 1.14, written by Peter Selinger 2001-2017
</metadata>
<g transform="translate(0.000000,640.000000) scale(0.100000,-0.100000)"
fill="#000000" stroke="none">
<path d="M3897 5106 c-62 -17 -69 -26 -21 -27 41 -1 100 -16 74 -19 -8 -1 -32
-4 -53 -6 -21 -3 -36 -1 -34 3 8 13 -65 9 -88 -4 -53 -30 -113 -115 -250 -353
-81 -140 -157 -273 -170 -296 l-24 -41 77 -29 c59 -22 412 -215 539 -294 16
-10 18 -22 15 -88 -2 -43 -6 -79 -7 -80 -3 -4 -66 32 -387 220 -65 38 -122 67
-127 64 -9 -6 -68 -103 -100 -165 -7 -14 -29 -49 -47 -78 -19 -28 -34 -54 -34
-57 0 -4 -22 -43 -50 -87 -27 -44 -50 -83 -50 -85 0 -3 -27 -51 -61 -107 -33
-56 -66 -111 -72 -122 -37 -62 -50 -77 -58 -64 -4 7 -5 33 -2 58 4 42 2 49
-30 79 -33 32 -34 35 -20 63 19 38 22 37 16 -6 -3 -21 0 -35 6 -35 6 0 11 10
12 23 1 17 3 15 8 -9 10 -39 19 -54 34 -54 8 0 8 3 -1 9 -16 9 -15 165 1 217
10 33 36 37 38 5 0 -11 2 -12 6 -3 3 8 -4 22 -15 32 -19 18 -20 18 -36 -23 -9
-24 -16 -49 -16 -57 -1 -8 -7 -26 -16 -40 l-15 -25 6 25 c4 16 -3 9 -20 -20
-15 -25 -32 -48 -38 -52 -6 -4 -9 -10 -5 -13 3 -4 2 -20 -4 -36 -6 -17 -12
-28 -14 -26 -3 2 0 17 6 33 9 27 9 28 -5 10 -8 -11 -15 -24 -15 -29 0 -5 -9
-20 -20 -34 -11 -14 -18 -29 -15 -33 3 -4 -2 -13 -10 -20 -8 -7 -15 -19 -15
-26 0 -8 -4 -14 -8 -14 -4 0 -18 -19 -30 -42 -12 -24 -31 -56 -42 -73 -11 -16
-29 -48 -41 -70 -12 -22 -29 -51 -39 -65 -9 -14 -15 -31 -12 -39 3 -9 0 -11
-8 -6 -10 6 -12 4 -7 -9 4 -9 3 -15 -2 -12 -8 5 -21 -15 -20 -30 0 -4 -3 -10
-8 -13 -19 -13 -83 -133 -77 -143 4 -6 2 -8 -3 -5 -14 9 -73 -103 -73 -137 0
-14 13 -40 29 -58 34 -38 87 -44 120 -14 20 18 20 18 14 -32 -11 -98 72 -216
192 -273 50 -24 73 -29 136 -29 63 0 79 3 94 20 25 28 32 25 39 -14 8 -43 57
-86 97 -86 51 0 85 26 126 97 212 366 505 872 615 1063 75 129 150 259 167
289 29 48 31 56 19 82 -7 16 -15 29 -18 29 -3 0 -5 24 -5 52 0 69 15 78 66 42
22 -15 41 -25 42 -23 4 5 9 14 162 279 62 107 126 218 142 245 46 78 64 134
70 210 9 122 -43 247 -135 326 -51 43 -232 143 -287 158 -53 14 -148 13 -208
-3z m48 -186 c-3 -5 -12 -10 -19 -10 -7 0 -25 -9 -40 -21 -28 -22 -34 -12 -14
21 9 13 24 20 46 20 20 0 31 -4 27 -10z m-52 -244 c16 -12 17 -17 5 -36 -11
-18 -10 -23 7 -36 18 -13 22 -13 37 6 18 22 26 24 47 11 11 -7 6 -22 -24 -75
-42 -76 -46 -80 -69 -63 -15 11 -16 17 -5 41 12 25 11 30 -6 42 -17 13 -21 13
-32 -2 -7 -9 -14 -21 -16 -27 -4 -12 -47 1 -47 14 0 13 73 139 80 138 3 0 13
-6 23 -13z m197 -115 c33 -20 46 -34 48 -55 3 -20 -2 -29 -16 -33 -13 -3 -18
-11 -15 -27 6 -31 -23 -59 -51 -50 -11 4 -40 18 -64 31 l-42 25 31 57 c37 64
49 81 58 80 3 0 26 -13 51 -28z m-35 -611 c3 -5 2 -10 -4 -10 -5 0 -13 5 -16
10 -3 6 -2 10 4 10 5 0 13 -4 16 -10z m-1190 -492 c5 4 5 1 1 -6 -6 -10 -11
-10 -22 -1 -8 6 -14 17 -14 23 0 6 7 3 14 -6 7 -10 17 -14 21 -10z m88 -127
c-5 -3 -17 -23 -28 -44 -11 -21 -24 -41 -29 -44 -9 -6 3 39 13 47 16 13 31 52
24 63 -4 7 0 6 11 -2 9 -8 13 -17 9 -20z m-43 4 c0 -8 -2 -15 -4 -15 -2 0 -6
7 -10 15 -3 8 -1 15 4 15 6 0 10 -7 10 -15z"/>
<path d="M4055 4530 c-8 -13 3 -30 21 -30 18 0 18 14 0 29 -10 8 -16 9 -21 1z"/>
<path d="M4022 4464 c2 -11 11 -20 22 -22 13 -3 17 1 14 14 -2 11 -11 20 -22
22 -13 3 -17 -1 -14 -14z"/>
<path d="M3007 3723 c-4 -3 -7 -16 -6 -27 0 -19 1 -19 10 3 10 24 8 36 -4 24z"/>
<path d="M2990 3455 c0 -14 -4 -25 -10 -25 -5 0 -10 -7 -10 -15 0 -24 17 -17
24 9 3 13 9 31 12 40 3 9 1 16 -5 16 -6 0 -11 -11 -11 -25z"/>
<path d="M2938 2323 c6 -2 18 -2 25 0 6 3 1 5 -13 5 -14 0 -19 -2 -12 -5z"/>
<path d="M2336 1814 c-4 -69 -5 -128 -2 -131 7 -7 75 33 159 94 l67 50 -32 16
c-18 8 -48 21 -67 28 -19 7 -47 25 -63 41 -50 49 -55 41 -62 -98z m47 34 c-3
-18 -10 -44 -14 -58 -7 -23 -7 -22 -8 10 -1 43 8 80 20 80 5 0 6 -15 2 -32z"/>
</g>
</svg>
